# xmcd
#
# Track frame offsets: 
#        150
#        12547
#        23444
#        35107
#        49177
#        61256
#        71646
#        86318
#        97006
#        110902
#        123312
#        133577
#        149022
#        162864
#
# Disc length: 2373 seconds
#
# Revision: 0
# Processed by: cddbd v1.5.1PL2 Copyright (c) Steve Scherf et al.
# Submitted via: ExactAudioCopy v0.95b2
#
DISCID=c709430e
DTITLE=Various Artist - Best of Country Disc One
DYEAR=2004
DGENRE=Country
TTITLE0=Take This Job and Shove It - Johnny Paycheck
TTITLE1=There Goes My Everything - Jack Greene
TTITLE2=Happiest Girl In The Whole USA  - Donna Fargo
TTITLE3=I'm So Lonesome I Could Cry - BJ Thomas
TTITLE4=Before The Next Teardrop Falls - Freddy Fender
TTITLE5=Oh Lonesome Me - Don Gibson
TTITLE6=Satin Sheets - Jeanne Pruett
TTITLE7=Wings Of a Dove - Ferlin Husky
TTITLE8=Teddy Bear Song - Barbara Fairchild
TTITLE9=Satisfied Mind - Porter Wagner
TTITLE10=Hello Walls - Faron Young
TTITLE11=Last Cheaters Waltz - TG Shepperd
TTITLE12=I Cheated Me Right Out of You - Moe Bandy
TTITLE13=Hillbilly Heaven - Tex Ritter
EXTD=
EXTT0=
EXTT1=
EXTT2=
EXTT3=
EXTT4=
EXTT5=
EXTT6=
EXTT7=
EXTT8=
EXTT9=
EXTT10=
EXTT11=
EXTT12=
EXTT13=
PLAYORDER=
